<svg xmlns="http://www.w3.org/2000/svg" width="32" height="32" viewBox="0 0 32 32" fill="none"><g clip-path="url(#clip0_1_12394)"><path d="M5.07846 30.4083C4.71714 30.7792 4.72496 31.3727 5.09589 31.734C5.27814 31.9115 5.51414 31.9999 5.74996 31.9999C5.99396 31.9999 6.23789 31.9052 6.42164 31.7165L9.67464 28.377C9.10277 28.0843 8.55608 27.7486 8.03689 27.3711L5.07846 30.4083Z" fill="currentColor"></path><path d="M31.1778 5.01133C30.0812 3.91484 28.2968 3.91484 27.2003 5.01133C26.3268 5.88469 26.1498 7.19393 26.6677 8.24492L25.3008 9.64828C25.6924 10.158 26.0425 10.6955 26.3498 11.2586L28.0104 9.55365C28.3832 9.72521 28.7861 9.81115 29.189 9.81115C29.9093 9.81115 30.6295 9.53703 31.1778 8.98872C32.2744 7.89223 32.2744 6.10794 31.1778 5.01133ZM29.8519 7.66299C29.4864 8.02854 28.8917 8.02854 28.5261 7.66299C28.349 7.48593 28.2514 7.25049 28.2514 7.00006C28.2514 6.74962 28.349 6.51425 28.5261 6.33713C28.8917 5.97163 29.4864 5.97163 29.8519 6.33713C30.029 6.51419 30.1265 6.74962 30.1265 7.00006C30.1265 7.25049 30.029 7.48593 29.8519 7.66299Z" fill="currentColor"></path><path d="M0.210539 30.4706C-0.116395 30.8721 -0.0558959 31.4626 0.345599 31.7895C0.519535 31.9311 0.728845 32.0001 0.936968 32.0001C1.20921 32.0001 1.47921 31.882 1.66452 31.6544L6.3509 25.8989C5.90566 25.4348 5.4996 24.9423 5.13486 24.4229L0.210539 30.4706Z" fill="currentColor"></path><path d="M22.9921 5.46186C23.2929 5.56992 23.6107 5.62598 23.9341 5.62598C24.0607 5.62598 24.1884 5.61742 24.3162 5.60017C25.0608 5.49967 25.7215 5.11524 26.177 4.51774C26.6323 3.92025 26.8278 3.1812 26.7273 2.43671C26.6268 1.69222 26.2423 1.03141 25.6448 0.576042C25.0473 0.12061 24.308 -0.0746374 23.5637 0.0257364C22.8191 0.126235 22.1584 0.510668 21.703 1.10816C21.2476 1.70565 21.0521 2.44471 21.1526 3.1892C21.2056 3.58138 21.338 3.94988 21.5382 4.27781L20.3242 5.76873C20.9136 6.02235 21.4792 6.31878 22.0186 6.6574L22.9921 5.46186ZM23.1943 2.24477C23.3461 2.04559 23.5662 1.91746 23.8144 1.88396C23.8571 1.87821 23.8996 1.8754 23.9418 1.8754C24.1457 1.8754 24.3431 1.94171 24.5082 2.0674C24.9193 2.38077 24.9989 2.97014 24.6855 3.38126C24.3721 3.79244 23.7826 3.87194 23.3716 3.55863C23.1724 3.40682 23.0443 3.18657 23.0108 2.93845C22.9773 2.69033 23.0424 2.44396 23.1943 2.24477Z" fill="currentColor"></path><path d="M14.2578 11.1602C14.6571 11.9198 15.1236 12.6584 15.6523 13.3669C16.1695 13.0728 16.7034 12.7968 17.2462 12.546C19.3395 11.5785 21.5702 10.9653 23.7763 10.7442C23.505 10.3947 23.2089 10.0582 22.8879 9.73723C22.4773 9.32661 22.041 8.9573 21.5849 8.62793C19.6997 8.85674 17.835 9.39236 16.0349 10.2242C15.4257 10.5058 14.8291 10.8203 14.2578 11.1602Z" fill="currentColor"></path><path d="M11.0007 7.56543C10.2912 7.88574 9.60988 8.28805 8.9707 8.77217L8.9747 8.85254C9.1482 12.3386 10.8667 15.9566 13.6893 18.7792C16.5119 21.6017 20.1301 23.3199 23.6163 23.4935L23.9623 23.5108C24.3996 22.9126 24.766 22.279 25.0626 21.6215C21.7843 20.9705 18.5898 19.2136 15.9983 16.6223C13.405 14.029 11.6522 10.8415 11.0007 7.56543Z" fill="currentColor"></path><path d="M25.6844 19.8308C25.9192 18.889 26.0235 17.9214 25.997 16.9565C24.3273 17.0968 22.6343 17.4881 21.0039 18.1107C22.4992 18.9591 24.0847 19.546 25.6844 19.8308Z" fill="currentColor"></path><path d="M18.0346 14.2481C17.6423 14.4293 17.2556 14.6257 16.877 14.8323C17.023 14.9892 17.1721 15.1441 17.3247 15.2967C17.8983 15.8702 18.5039 16.3974 19.1341 16.8761C19.179 16.8458 19.2266 16.8182 19.2777 16.7954C21.3695 15.8634 23.5902 15.2845 25.781 15.0933C25.6002 14.2171 25.3087 13.3592 24.905 12.5425C22.6058 12.6429 20.2395 13.2291 18.0346 14.2481Z" fill="currentColor"></path><path d="M15.2494 8.52241C16.4431 7.97079 17.6641 7.5376 18.9017 7.22504C17.7627 6.82542 16.5693 6.62549 15.3758 6.62549C14.5072 6.62549 13.6386 6.73186 12.791 6.94355C12.9409 7.78398 13.1735 8.62009 13.484 9.44121C14.0547 9.10946 14.6466 8.80103 15.2494 8.52241Z" fill="currentColor"></path><path d="M7.25198 10.4028C6.56149 11.2202 6.01381 12.1171 5.60938 13.0607C6.11268 16.2729 7.7921 19.4415 10.3571 22.0064C13.06 24.7092 16.4092 26.4192 19.7878 26.8215L19.9532 26.8412C20.8066 26.434 21.6168 25.9064 22.3586 25.2585C18.7885 24.7808 15.202 22.9432 12.3638 20.1051C9.60302 17.3444 7.78866 13.8757 7.25198 10.4028Z" fill="currentColor"></path><path d="M4.75453 16.939C4.67235 19.7609 5.70771 22.6093 7.86156 24.763C9.93629 26.8377 12.6556 27.875 15.3748 27.875C15.604 27.875 15.8331 27.867 16.0619 27.8523C13.5158 26.9436 11.0965 25.3988 9.02968 23.3321C7.14226 21.4448 5.68609 19.2527 4.75453 16.939Z" fill="currentColor"></path></g><defs><clipPath id="clip0_1_12394"><rect width="32" height="32" fill="currentColor"></rect></clipPath></defs></svg>