<svg xmlns="http://www.w3.org/2000/svg" viewBox="0 0 32 32" xmlns:v="https://vecta.io/nano"><path d="M13.179 6.288v.027l.016-.02z"/><path fill="#f96703" d="M15.624 1.028c-7.811 0-14.167 6.355-14.167 14.167s6.356 14.167 14.167 14.167 14.168-6.354 14.168-14.167S23.436 1.028 15.624 1.028zm12.943 14.167c0 .248-.022.49-.037.735-.091-.23-.229-.53-.262-.659-.048-.196-.341-.879-.341-.879s-.293-.39-.488-.488-.341-.342-.683-.536-.487-.293-.779-.293-.585-.391-.928-.586-.39-.097-.39-.097.39.585.39.731.438.39.879.292c0 0 .292.537.438.683s-.049.293-.341.488-.244.146-.392.292-.633.392-.78.488-.731.39-1.023.097c-.143-.141-.099-.438-.195-.634s-1.122-1.707-1.61-2.389c-.085-.12-.293-.49-.438-.585s.342-.099.342-.099 0-.342-.049-.585.049-.585.049-.585l-.636.39c-.145.098-.292-.194-.486-.439s-.391-.537-.439-.781.244-.341.244-.341l.438-.243s.537-.097.879-.049.877.098.877.098.146-.342-.049-.488-.635-.39-.83-.341.097-.244.34-.439l-.54-.098s-.491.244-.638.293-.4.146-.596.39.078.585-.117.683-.326.146-.473.194-.61 0-.61 0c-.504 0-.181.46-.05.623l-.39-.476-.289-.682s-.416-.292-.611-.389-.796-.439-.796-.439l.042.439.565.572.05.013.294.39-.649.049v-.386c-.612-.148-.452-.3-.521-.347-.145-.097-.484-.342-.484-.342s-.574.098-.721.147-.188.195-.479.292-.426.244-.523.39-.415.585-.608.78-.558.146-.704.146-.851-.195-.851-.195v-.827s.095-.464.047-.61l.427-.072.713-.147.209-.147.3-.39s-.337-.244-.094-.585c.117-.164.538-.195.733-.341s.489-.244.489-.244.342-.292.683-.634c0 0 .244-.147.536-.245 0 0 .83.732.977.732s.683-.341.683-.341.146-.438.098-.585-.293-.634-.293-.634-.146.244-.292.439-.244.439-.244.439-.683-.047-.731-.193-.146-.388-.196-.533-.438-.142-.729-.044.047-.526.047-.526.294-.368.488-.368.635-.25.828-.298.783-.272 1.025-.272.537.105.684.105h.731l1.023-.082s.879.325.585.521c0 0 .343.211.489.357.137.138.491-.127.694-.24 3.649 2.29 6.089 6.341 6.089 10.96zM5.296 7.563c0 .195-.266.242 0 .732.34.634.048.927.048.927l-.976.683c-.146.098-.536.634-.293.487s.536-.292.293.098-.683 1.024-.78 1.269-.585.829-.585 1.122-.195.879-.146 1.123c.033.17-.075.671-.16.877A12.84 12.84 0 0 1 5.21 7.545c.05.005.086.018.086.018zm1.567-1.87c1.193-1.101 2.591-1.979 4.133-2.573-.152.195-.336.395-.336.395s-.341-.001-.976.683-.487.488-.633.682-.098.244-.44.489-.487.536-.487.536l-.537.195-.438-.195s-.392.147-.343-.049c.014-.052.035-.106.057-.163zm5.846 1.138l-.194-.292.194-.439.47.188v-.871l.449-.243.373.536.574.635-.381.292-1.016.195v-.517l-.469.516zm6.342 4.585c.114-.09.487.146.487.146s1.219.244 1.414.39.537.245.635.392.438.585.486.731.294.684.343.878.195.683.341.927.976 1.317 1.268 1.805l.88-.146s-.099.438-.196.585-.39.536-.536.731-.341.488-.634.731-.294.487-.439.683-.342.634-.342.634.098.976.146 1.171-.341.731-.341.731l-.44.44-.588.779.048.731-.689.537c-.242.194-.204.341-.399.537s-.957.536-1.152.585-1.271.195-1.271.195v-.438l-.022-.488s-.148-.585-.295-.78-.083-.489-.327-.732-.334-.438-.383-.586.053-.584.053-.584.197-.537.294-.732.001-.487-.097-.683-.145-.684-.145-.829-.392-.391-.538-.537-.097-.342-.097-.535-.146-.635-.098-.977-.438-.098-.731 0-.487-.098-.487-.391-.536-.048-.878.146-.732.195-1.124.342-.583-.146-.583-.146-.343-.292-.585-.439-.489-.438-.685-.682-.683-.977-.73-1.268 0-.49 0-.831 0-.536.048-.78.195-.537.342-.781.683-.536.828-.634.488-.389.488-.585.196-.292.292-.488.44-.682.879-.487c0 0 .389-.048.535-.097a7.32 7.32 0 0 0 .729-.292c.195-.098.681-.144.681-.144s.384.153.53.153.622-.085.622-.085.22.707.22.854.146.292.391.39 1.364.344 1.852-.047zm5.609 9.561c0 .146-.049.537-.098.732l-.195.73c-.049.196-.293.586-.438.684s-.391.391-.536.439-.245-.342-.196-.537.293-.731.293-.731.049-.292.097-.488.635-.438.635-.438l.391-.732c-.002-.001.047.196.047.341zM3.015 18.071c.063.016.153.062.28.175.184.16.293.242.537.341s.341.243.634.39.196.05.585.488.342.438.439.683a3.68 3.68 0 0 0 .342.635c.098.146.39.243.536.341s.39.195.536.195.586.439.83.487.244.538.244.538l-.244.682-.196.731.196.585s-.294.245-.487.245c-.18 0-.241.114-.438.06a12.93 12.93 0 0 1-3.794-6.576z"/></svg>