<svg xmlns="http://www.w3.org/2000/svg" width="135" height="32" fill="none" xmlns:v="https://vecta.io/nano"><path d="M6.833 10.333h-5L1 21.166c.556.833 1.833 2.667 2.5 3.333s1.389 1.944 1.667 2.5l5 3.333 5-1.667 5-3.333 1.667-6.667v-8.333h-2.5l-7.5.833-5-.833z" fill="#ff6854"/><g stroke-width="3.333" stroke-linecap="round" stroke-linejoin="round"><path d="M1.832 9.5v10c0 5.523 4.477 10 10 10h0 0c5.523 0 10-4.477 10-10v-10" stroke="#ff6854"/><path d="M21.832 2s-6.095.833-10 .833-10-.833-10-.833" stroke="#3ac4e5"/><path d="M21.836 10.333s-6.095.833-10 .833-10-.833-10-.833" stroke="#ff6854"/></g><path d="M54.464 6.486h-4.416l-4.056 11.448-4.056-11.448H37.52l-1.368 16.848h3l1.08-13.872 4.728 13.872h2.064L51.728 9.51l1.104 13.824h3L54.464 6.486zm14.16 9.048c0-2.832-1.824-4.392-5.16-4.392-2.904 0-4.944 1.152-5.424 3.648l2.736.408c.264-1.344 1.176-1.992 2.664-1.992 1.296 0 2.328.576 2.328 1.896 0 .528-.456.696-1.032.84l-2.328.48c-2.256.456-4.488 1.344-4.488 3.912 0 2.328 1.872 3.24 3.84 3.24 1.68 0 3.288-.672 4.104-2.064l.12 1.824h2.808v-.264c-.168-.48-.168-1.2-.168-1.92v-5.616zm-6.048 6.048c-1.08 0-1.8-.528-1.8-1.536 0-1.152.888-1.68 2.088-1.896l3.048-.72c0 2.712-1.536 4.152-3.336 4.152zm11.878-10.2h-2.832v11.952h2.832v-5.52c0-2.928 1.344-4.008 4.248-4.008v-2.664c-1.992 0-3.528.84-4.248 2.16v-1.92zm14.492 6.624c-.024 2.328-1.344 3.264-2.928 3.264-1.488 0-2.52-.768-2.52-2.496v-7.392h-2.856v7.968c0 2.664 1.536 4.224 4.488 4.224 1.656 0 2.976-.648 3.816-1.704v1.464h2.832V11.382h-2.832v6.624zm12.596-6.864c-1.632 0-2.928.624-3.768 1.68v-1.44h-2.856v11.952h2.856V16.23c.192-1.968 1.44-2.808 2.904-2.808s2.52.816 2.52 2.544v7.368h2.832V15.39c0-2.664-1.536-4.248-4.488-4.248zm13.269 12.432c2.904 0 5.16-1.584 5.76-4.32l-2.616-.264c-.432 1.512-1.584 2.328-3.168 2.328-2.088 0-3.456-1.632-3.456-3.96s1.368-3.96 3.456-3.96c1.584 0 2.736.792 3.168 2.328l2.616-.264c-.6-2.736-2.784-4.32-5.76-4.32-3.744 0-6.336 2.544-6.336 6.216s2.592 6.216 6.336 6.216zm13.206-3.624l-3.264-8.568h-3.096l4.872 11.472-2.76 6.312h3.096l7.512-17.784h-3.096l-3.264 8.568z" fill="#343e61"/></svg>