<svg width="144" height="144" viewBox="0 0 144 144" fill="none" xmlns="http://www.w3.org/2000/svg">
<path d="M57 53.998H39L36 92.998C38 95.998 42.6 102.598 45 104.998C47.4 107.398 50 111.998 51 113.998L69 125.998L87 119.998L105 107.998L111 83.998V53.998H102L75 56.998L57 53.998Z" fill="#FF6854"/>
<path d="M39 50.998V86.9981C39 106.88 55.1178 122.998 75 122.998V122.998V122.998C94.8823 122.998 111 106.88 111 86.998V50.998" stroke="#FF6854" stroke-width="12" stroke-linecap="round" stroke-linejoin="round"/>
<path d="M111 23.998C111 23.998 89.0589 26.998 75 26.998C60.9411 26.998 39 23.998 39 23.998" stroke="#3AC4E5" stroke-width="12" stroke-linecap="round" stroke-linejoin="round"/>
<path d="M111.002 53.999C111.002 53.999 89.0608 56.999 75.002 56.999C60.9431 56.999 39.002 53.999 39.002 53.999" stroke="#FF6854" stroke-width="12" stroke-linecap="round" stroke-linejoin="round"/>
</svg>
