<svg width="41" height="39" viewBox="0 0 41 39" fill="none" xmlns="http://www.w3.org/2000/svg">
<path fill-rule="evenodd" clip-rule="evenodd" d="M23.1607 9.7329C23.9576 9.7329 24.6107 9.11073 24.6107 8.32422C24.6107 7.54358 23.9576 6.90381 23.1607 6.90381C22.3758 6.90381 21.7227 7.54358 21.7227 8.32422C21.7286 9.10486 22.3817 9.7329 23.1607 9.7329Z" fill="url(#paint0_linear_470_178)"/>
<path fill-rule="evenodd" clip-rule="evenodd" d="M33.5714 16.518C30.911 14.5224 28.1069 12.6031 25.189 10.9714C24.6198 11.3881 23.9307 11.6287 23.1638 11.6287C21.3064 11.6287 19.7905 10.1438 19.7905 8.32421C19.7905 6.50467 21.3064 5.01969 23.1638 5.01969C25.0392 5.01969 26.5371 6.50467 26.5371 8.32421C26.5371 8.37117 26.5371 8.41813 26.5371 8.48269C29.9943 10.4138 33.2718 12.6852 36.4054 15.0976C34.4821 11.5524 32.1334 8.08357 29.8026 5.36599C27.6995 2.88906 25.5964 1.0343 23.8828 0.318226C18.1068 -2.09413 17.3578 9.90311 17.3398 12.9376C30.8931 18.0676 38.5625 23.5614 40.354 29.4426C42.1515 23.1329 37.9573 19.8108 33.5714 16.518Z" fill="url(#paint1_linear_470_178)"/>
<path fill-rule="evenodd" clip-rule="evenodd" d="M31.5978 30.8396C31.2084 31.5087 30.3276 31.7494 29.6385 31.3502C28.9375 30.9687 28.7098 30.1059 29.0993 29.4192C29.5067 28.7501 30.3875 28.527 31.0705 28.9085C31.7596 29.2842 32.0053 30.1646 31.5978 30.8396Z" fill="url(#paint2_linear_470_178)"/>
<path fill-rule="evenodd" clip-rule="evenodd" d="M17.9154 34.8484C20.9951 33.6041 24.0988 32.1778 26.9988 30.505C26.9149 29.8359 27.0647 29.114 27.4422 28.4742C28.3709 26.8953 30.4261 26.3494 32.0438 27.2768C33.6556 28.1866 34.2128 30.1998 33.2841 31.7846C32.3554 33.3693 30.2823 33.9093 28.6705 32.9996C28.6405 32.9702 28.5866 32.935 28.5387 32.9174C25.0994 34.8837 21.4625 36.5271 17.7596 37.9651C21.8519 38.1119 26.0941 37.8536 29.6651 37.2491C32.9126 36.6915 35.5849 35.8404 37.0888 34.7428C42.0979 31.0509 31.8701 24.4066 29.1918 22.8864C17.8794 31.8139 9.1735 35.5645 3.08594 34.1441C7.78343 38.828 12.7925 36.938 17.9154 34.8484Z" fill="url(#paint3_linear_470_178)"/>
<path fill-rule="evenodd" clip-rule="evenodd" d="M6.23663 26.0267C5.84717 25.3575 6.07486 24.4947 6.75791 24.0956C7.45894 23.7141 8.33972 23.9371 8.72918 24.6239C9.13662 25.293 8.89096 26.1558 8.2079 26.5432C7.52485 26.9364 6.62609 26.6958 6.23663 26.0267Z" fill="url(#paint4_linear_470_178)"/>
<path fill-rule="evenodd" clip-rule="evenodd" d="M9.53125 12.3977C9.09385 15.6552 8.81225 18.9832 8.83022 22.2877C9.46534 22.5577 10.0346 23.0214 10.412 23.6612C11.3407 25.2401 10.7895 27.2709 9.17175 28.1807C7.55998 29.0905 5.50483 28.5505 4.57012 26.9657C3.62343 25.3868 4.18066 23.3736 5.79243 22.458C5.84036 22.4286 5.8883 22.3934 5.93623 22.3758C5.90627 18.4784 6.27776 14.5635 6.84697 10.6955C4.67797 14.0998 2.7846 17.8211 1.54431 21.1608C0.411884 24.2071 -0.175303 26.907 0.0523815 28.709C0.801344 34.8132 11.7961 29.4603 14.4684 27.9401C12.2395 13.9002 13.2641 4.63231 17.5721 0.177368C11.0771 1.82083 10.2443 7.01533 9.53125 12.3977Z" fill="url(#paint5_linear_470_178)"/>
<defs>
<linearGradient id="paint0_linear_470_178" x1="23.7413" y1="7.12713" x2="22.3632" y2="9.67672" gradientUnits="userSpaceOnUse">
<stop stop-color="#082CFF"/>
<stop offset="1" stop-color="#01D2FF"/>
</linearGradient>
<linearGradient id="paint1_linear_470_178" x1="33.724" y1="2.32409" x2="17.6723" y2="25.4853" gradientUnits="userSpaceOnUse">
<stop stop-color="#082CFF"/>
<stop offset="1" stop-color="#01D2FF"/>
</linearGradient>
<linearGradient id="paint2_linear_470_178" x1="30.9268" y1="28.9454" x2="29.5539" y2="31.49" gradientUnits="userSpaceOnUse">
<stop stop-color="#082CFF"/>
<stop offset="1" stop-color="#01D2FF"/>
</linearGradient>
<linearGradient id="paint3_linear_470_178" x1="27.8043" y1="24.0798" x2="23.8702" y2="40.7578" gradientUnits="userSpaceOnUse">
<stop stop-color="#082CFF"/>
<stop offset="1" stop-color="#01D2FF"/>
</linearGradient>
<linearGradient id="paint4_linear_470_178" x1="8.05993" y1="24.1331" x2="6.68476" y2="26.6763" gradientUnits="userSpaceOnUse">
<stop stop-color="#082CFF"/>
<stop offset="1" stop-color="#01D2FF"/>
</linearGradient>
<linearGradient id="paint5_linear_470_178" x1="12.2835" y1="2.65489" x2="-5.98927" y2="21.1917" gradientUnits="userSpaceOnUse">
<stop stop-color="#082CFF"/>
<stop offset="1" stop-color="#01D2FF"/>
</linearGradient>
</defs>
</svg>
