<svg xmlns="http://www.w3.org/2000/svg">
    <svg xmlns="http://www.w3.org/2000/svg" id="ic-external" viewBox="0 0 28 28" fill="none">
        <path d="M23.917 25.667H4.08366" stroke="currentColor" stroke-width="2" stroke-miterlimit="10" stroke-linecap="round" stroke-linejoin="round"></path>
        <path d="M22.167 4.08301L5.83366 20.4163" stroke="currentColor" stroke-width="2" stroke-miterlimit="10" stroke-linecap="round" stroke-linejoin="round"></path>
        <path d="M22.167 16.0647V4.08301H10.1853" stroke="currentColor" stroke-width="2" stroke-miterlimit="10" stroke-linecap="round" stroke-linejoin="round"></path>
    </svg>
    <svg id="ic-search" viewBox="0 0 24 24" fill="none" xmlns="http://www.w3.org/2000/svg">
        <path d="M11.7664 20.7552C16.7306 20.7552 20.755 16.7309 20.755 11.7666C20.755 6.80239 16.7306 2.77808 11.7664 2.77808C6.80215 2.77808 2.77783 6.80239 2.77783 11.7666C2.77783 16.7309 6.80215 20.7552 11.7664 20.7552Z" stroke="currentColor" stroke-width="1.5" stroke-linecap="round" stroke-linejoin="round" />
        <path d="M18.0181 18.4851L21.5421 22" stroke="currentColor" stroke-width="1.5" stroke-linecap="round" stroke-linejoin="round" />
    </svg>
    <svg fill="none" id="ic-profile">
        <path d="M9.577 1.67c-2.07.186-3.707 1.726-4.064 3.822-.067.389-.047 1.222.037 1.608.461 2.108 2.283 3.596 4.409 3.599a4.486 4.486 0 0 0 3.419-1.53 4.47 4.47 0 0 0 1.125-3.001c0-.643-.095-1.131-.336-1.72a4.517 4.517 0 0 0-4.59-2.778m.812 1.413c1.115.105 2.18.972 2.555 2.084.132.388.166.659.147 1.146-.013.341-.036.503-.106.737a3.108 3.108 0 0 1-2.821 2.239c-1.489.086-2.787-.847-3.204-2.306-.066-.231-.076-.339-.074-.816.002-.498.011-.578.092-.844.331-1.085 1.168-1.9 2.236-2.177.228-.059.679-.108.853-.092l.322.029m-1.872 9.005c-1.718.131-2.709.335-3.538.727-.903.427-1.474 1.076-1.65 1.877-.053.244-.055.837-.002 1.07.29 1.281 1.454 2.086 3.523 2.437 1.556.264 4.149.292 5.867.064 1.99-.264 3.208-.89 3.725-1.914.177-.351.24-.632.241-1.082 0-.246-.019-.492-.046-.6-.295-1.178-1.331-1.948-3.113-2.315-1.03-.212-1.607-.258-3.341-.268a59.89 59.89 0 0 0-1.666.004m3.516 1.526c1.523.165 2.412.448 2.897.924.287.282.369.776.19 1.141-.328.67-1.542 1.078-3.648 1.225-.75.052-3.005.02-3.605-.051-1.501-.178-2.353-.456-2.831-.925-.275-.271-.357-.746-.191-1.109.311-.679 1.537-1.102 3.622-1.251.647-.046 2.994-.016 3.566.046" fill-rule="evenodd" fill="currentColor" />
    </svg>
    <svg fill="none" id="ic-calander">
        <path d="M6.361.966a.604.604 0 0 0-.366.281c-.069.12-.079.189-.09.577l-.011.441-.106.015c-1.326.189-2.06.518-2.79 1.25-.682.684-1.035 1.44-1.183 2.537-.038.286-.047 1.115-.048 4.552 0 4.336.005 4.548.135 5.103.378 1.62 1.471 2.751 3.056 3.163.693.18.751.182 5.052.181 4.217-.001 4.297-.003 4.961-.161 1.73-.412 2.866-1.64 3.184-3.441.058-.326.062-.625.062-4.831 0-4.149-.005-4.507-.059-4.8-.183-.977-.551-1.719-1.155-2.323-.679-.68-1.545-1.068-2.742-1.226l-.156-.021-.011-.44c-.013-.526-.062-.657-.297-.79-.125-.07-.19-.083-.43-.083-.344 0-.514.079-.638.296-.069.12-.08.19-.09.562l-.012.425h-5.26v-.371c0-.435-.042-.601-.187-.746-.158-.159-.552-.231-.819-.15m6.278 3.242c.014.549.056.677.268.817.104.069.182.089.395.102.427.024.678-.114.763-.42.019-.068.035-.309.035-.536v-.413l.203.023a3.145 3.145 0 0 1 1.482.612c.632.509.982 1.381.982 2.448V7.1H3.233l.001-.242c.001-1.334.522-2.308 1.483-2.775.307-.15.7-.268 1.005-.304l.171-.021.013.463c.011.397.023.482.085.601.109.204.265.286.581.305.424.024.675-.115.76-.42.019-.068.034-.315.034-.549l.001-.425h5.26l.012.475m4.118 7.617c-.013 3.458-.009 3.376-.169 3.875a2.556 2.556 0 0 1-1.487 1.622 3.987 3.987 0 0 1-1.061.246c-.243.025-1.606.033-4.273.025-3.549-.011-3.941-.017-4.178-.069-1.407-.308-2.144-1.13-2.321-2.59-.022-.175-.035-1.44-.035-3.325V8.567H16.77l-.013 3.258m-10.84-1.396a.716.716 0 0 0-.195.131c-.207.232-.207.795 0 1.04.143.17.262.214.578.215.239.001.304-.011.416-.077.228-.134.312-.305.313-.638.003-.512-.217-.732-.729-.732a.917.917 0 0 0-.383.061m3.78-.03c-.251.076-.396.287-.422.617-.043.545.278.858.831.808.425-.039.628-.274.627-.726-.002-.509-.227-.735-.724-.728a1.515 1.515 0 0 0-.312.029m3.678.005c-.414.119-.556.85-.236 1.214.197.225.696.279 1 .108.195-.11.27-.254.287-.56.024-.398-.078-.617-.34-.736-.149-.068-.52-.081-.711-.026M5.97 13.641c-.493.166-.557 1.063-.095 1.328.12.068.186.081.425.081.348 0 .536-.087.647-.3.104-.2.1-.684-.007-.857-.124-.199-.274-.271-.587-.281a1.478 1.478 0 0 0-.383.029m3.643.042c-.249.124-.33.284-.33.65 0 .341.08.515.29.633.252.142.71.122.937-.04.287-.204.306-.926.03-1.171-.194-.172-.654-.208-.927-.072m3.82-.06c-.193.07-.278.135-.359.273-.079.135-.091.189-.091.437 0 .344.079.514.296.638.115.066.184.079.421.079.503-.001.699-.178.727-.656.024-.423-.115-.674-.42-.759-.129-.036-.487-.043-.574-.012" fill-rule="evenodd" fill="currentColor" />
    </svg>
    <svg fill="none" id="ic-clock">
        <path d="M8.992 1.615c-3.171.402-5.795 2.472-6.909 5.45a9.026 9.026 0 0 0-.425 1.601c-.063.361-.073.542-.073 1.334s.01.973.073 1.334c.244 1.403.772 2.647 1.575 3.716 1.332 1.772 3.206 2.907 5.433 3.291.571.099 1.981.107 2.567.016 3.715-.58 6.542-3.408 7.123-7.124.085-.543.085-1.923 0-2.466-.578-3.701-3.407-6.542-7.089-7.119-.479-.075-1.793-.094-2.275-.033m1.734 1.454a6.973 6.973 0 0 1 5.088 3.093c.538.806.895 1.721 1.075 2.756.081.467.081 1.697 0 2.164-.276 1.59-.976 2.909-2.116 3.988-2.458 2.326-6.225 2.537-8.962.503-.378-.282-1.102-1.006-1.384-1.384a6.99 6.99 0 0 1 0-8.378c.282-.378 1.006-1.102 1.384-1.384A7.129 7.129 0 0 1 9.233 3.07a9.076 9.076 0 0 1 1.493-.001m-1.293 2.77a.573.573 0 0 0-.388.352c-.058.149-.062.303-.062 2.359v2.2l.077.156a.787.787 0 0 0 .183.235c.209.156 3.324 1.995 3.46 2.043.164.058.208.06.367.016.166-.046.353-.239.467-.481.156-.329.117-.543-.141-.767-.08-.069-.769-.497-1.529-.951l-1.384-.824-.016-1.93c-.017-1.879-.019-1.934-.088-2.083a.667.667 0 0 0-.166-.222c-.188-.133-.52-.177-.78-.103" fill-rule="evenodd" fill="currentColor" />
    </svg>
    <svg viewBox="0 0 20 20" fill="none" id="ic-folder">
        <path fill-rule="evenodd" clip-rule="evenodd" d="M17.8704 13.1315C17.8704 16.1133 16.1133 17.8704 13.1315 17.8704H6.64302C3.65361 17.8704 1.89648 16.1133 1.89648 13.1315V6.63542C1.89648 3.65362 2.99183 1.89648 5.97363 1.89648H7.63949C8.23805 1.89648 8.80167 2.1783 9.16083 2.65715L9.9215 3.66883C10.2814 4.14673 10.8445 4.4283 11.4428 4.42949H13.8008C16.7903 4.42949 17.8933 5.95082 17.8933 8.9935L17.8704 13.1315Z" stroke="currentColor" stroke-width="1.5" stroke-linecap="round" stroke-linejoin="round" />
        <path d="M5.88232 12.0742H13.8769" stroke="currentColor" stroke-width="1.5" stroke-linecap="round" stroke-linejoin="round" />
    </svg>
    <svg viewBox="0 0 20 20" fill="none" id="ic-chat">
        <path fill-rule="evenodd" clip-rule="evenodd" d="M6.41277 11.159C5.87547 11.159 5.43896 10.7225 5.43896 10.1851C5.43896 9.64939 5.87547 9.21289 6.41277 9.21289C6.95008 9.21289 7.38659 9.64939 7.38659 10.1851C7.38659 10.7225 6.95008 11.159 6.41277 11.159ZM10.1985 11.159C9.66116 11.159 9.22466 10.7225 9.22466 10.1851C9.22466 9.64939 9.66116 9.21289 10.1985 9.21289C10.7358 9.21289 11.1723 9.64939 11.1723 10.1851C11.1723 10.7225 10.7358 11.159 10.1985 11.159ZM13.0105 10.1851C13.0105 10.7225 13.447 11.159 13.9843 11.159C14.5216 11.159 14.9581 10.7225 14.9581 10.1851C14.9581 9.64939 14.5216 9.21289 13.9843 9.21289C13.447 9.21289 13.0105 9.64939 13.0105 10.1851Z" fill="currentColor" />
        <path fill-rule="evenodd" clip-rule="evenodd" d="M10.0165 1.66675C5.17484 1.66675 1.6665 5.62185 1.6665 10.0126C1.6665 11.4147 2.07484 12.8577 2.7915 14.1763C2.92484 14.3942 2.9415 14.6687 2.84984 14.9283L2.2915 16.7977C2.1665 17.2484 2.54984 17.5814 2.97484 17.4479L4.65817 16.948C5.1165 16.7977 5.47484 16.9889 5.89984 17.2484C7.1165 17.9653 8.63317 18.3334 9.99984 18.3334C14.1332 18.3334 18.3332 15.1369 18.3332 9.98758C18.3332 5.54673 14.7498 1.66675 10.0165 1.66675Z" stroke="currentColor" stroke-width="1.5" stroke-linecap="round" stroke-linejoin="round" />
    </svg>
    <svg viewBox="0 0 20 20" fill="none" id="ic-tag">
        <path fill-rule="evenodd" clip-rule="evenodd" d="M9.72046 15.5262L4.77764 18.2341C4.38299 18.4392 3.8968 18.294 3.67924 17.9061C3.61629 17.7859 3.58234 17.6527 3.58008 17.5171V5.5186C3.58008 3.23027 5.14377 2.31494 7.39396 2.31494H12.68C14.8615 2.31494 16.4939 3.16925 16.4939 5.36604V17.5171C16.4939 17.7336 16.4079 17.9411 16.2548 18.0942C16.1018 18.2472 15.8942 18.3332 15.6777 18.3332C15.5396 18.3311 15.404 18.2972 15.281 18.2341L10.3078 15.5262C10.1245 15.4272 9.90371 15.4272 9.72046 15.5262Z" stroke="currentColor" stroke-width="1.5" stroke-linecap="round" stroke-linejoin="round" />
        <path d="M6.97461 7.7688H13.054" stroke="currentColor" stroke-width="1.5" stroke-linecap="round" stroke-linejoin="round" />
    </svg>
    <svg viewBox="0 0 20 20" fill="none" id="ic-pen">
        <path d="M11.4165 16.5818H16.7307" stroke="currentColor" stroke-width="1.5" stroke-linecap="round" stroke-linejoin="round" />
        <path fill-rule="evenodd" clip-rule="evenodd" d="M10.7126 4.12975C11.3268 3.34725 12.3193 3.38809 13.1026 4.00225L14.2609 4.91059C15.0443 5.52475 15.3218 6.47725 14.7076 7.26142L7.80009 16.0739C7.56926 16.3689 7.21676 16.5431 6.84176 16.5473L4.17759 16.5814L3.57426 13.9856C3.48926 13.6214 3.57426 13.2381 3.80509 12.9423L10.7126 4.12975Z" stroke="currentColor" stroke-width="1.5" stroke-linecap="round" stroke-linejoin="round" />
        <path d="M9.41895 5.78003L13.4139 8.9117" stroke="currentColor" stroke-width="1.5" stroke-linecap="round" stroke-linejoin="round" />
    </svg>
    <svg viewBox="0 0 20 20" fill="none" id="ic-eye">
        <path d="M12.9832 10C12.9832 11.65 11.6499 12.9834 9.9999 12.9834C8.3499 12.9834 7.0166 11.65 7.0166 10C7.0166 8.35002 8.3499 7.01672 9.9999 7.01672C11.6499 7.01672 12.9832 8.35002 12.9832 10Z" stroke="currentColor" stroke-width="1.5" stroke-linecap="round" stroke-linejoin="round" />
        <path d="M9.9999 16.8917C12.9416 16.8917 15.6832 15.1583 17.5916 12.1583C18.3416 10.9833 18.3416 9.00833 17.5916 7.83331C15.6832 4.83331 12.9416 3.09998 9.9999 3.09998C7.0582 3.09998 4.31654 4.83331 2.4082 7.83331C1.6582 9.00833 1.6582 10.9833 2.4082 12.1583C4.31654 15.1583 7.0582 16.8917 9.9999 16.8917Z" stroke="currentColor" stroke-width="1.5" stroke-linecap="round" stroke-linejoin="round" />
    </svg>

    <svg id="ic-buy" viewBox="0 0 24 24" fill="none">
        <g id="Iconly/Bold/Buy">
            <g id="Buy">
                <path id="Buy_2" fill-rule="evenodd" clip-rule="evenodd" d="M14.1213 11.2331H16.8891C17.3088 11.2331 17.6386 10.8861 17.6386 10.4677C17.6386 10.0391 17.3088 9.70236 16.8891 9.70236H14.1213C13.7016 9.70236 13.3719 10.0391 13.3719 10.4677C13.3719 10.8861 13.7016 11.2331 14.1213 11.2331ZM20.1766 5.92749C20.7861 5.92749 21.1858 6.1418 21.5855 6.61123C21.9852 7.08067 22.0551 7.7542 21.9652 8.36549L21.0159 15.06C20.8361 16.3469 19.7569 17.2949 18.4879 17.2949H7.58639C6.25742 17.2949 5.15828 16.255 5.04837 14.908L4.12908 3.7834L2.62026 3.51807C2.22057 3.44664 1.94079 3.04864 2.01073 2.64043C2.08068 2.22305 2.47038 1.94649 2.88006 2.00874L5.2632 2.3751C5.60293 2.43735 5.85274 2.72207 5.88272 3.06905L6.07257 5.35499C6.10254 5.68257 6.36234 5.92749 6.68209 5.92749H20.1766ZM7.42631 18.9079C6.58697 18.9079 5.9075 19.6018 5.9075 20.459C5.9075 21.3061 6.58697 22 7.42631 22C8.25567 22 8.93514 21.3061 8.93514 20.459C8.93514 19.6018 8.25567 18.9079 7.42631 18.9079ZM18.6676 18.9079C17.8282 18.9079 17.1487 19.6018 17.1487 20.459C17.1487 21.3061 17.8282 22 18.6676 22C19.4969 22 20.1764 21.3061 20.1764 20.459C20.1764 19.6018 19.4969 18.9079 18.6676 18.9079Z" fill="currentColor" />
            </g>
        </g>
    </svg>

    <svg viewBox="0 0 24 24" fill="none" id="ic-eye">
        <g id="Iconly/Bold/Show">
            <g id="Show">
                <path id="Show_2" fill-rule="evenodd" clip-rule="evenodd" d="M8.09756 12C8.09756 14.1333 9.8439 15.8691 12 15.8691C14.1463 15.8691 15.8927 14.1333 15.8927 12C15.8927 9.85697 14.1463 8.12121 12 8.12121C9.8439 8.12121 8.09756 9.85697 8.09756 12ZM17.7366 6.04606C19.4439 7.36485 20.8976 9.29455 21.9415 11.7091C22.0195 11.8933 22.0195 12.1067 21.9415 12.2812C19.8537 17.1103 16.1366 20 12 20H11.9902C7.86341 20 4.14634 17.1103 2.05854 12.2812C1.98049 12.1067 1.98049 11.8933 2.05854 11.7091C4.14634 6.88 7.86341 4 11.9902 4H12C14.0683 4 16.0293 4.71758 17.7366 6.04606ZM12.0012 14.4124C13.3378 14.4124 14.4304 13.3264 14.4304 11.9979C14.4304 10.6597 13.3378 9.57362 12.0012 9.57362C11.8841 9.57362 11.767 9.58332 11.6597 9.60272C11.6207 10.6694 10.7426 11.5227 9.65971 11.5227H9.61093C9.58166 11.6779 9.56215 11.833 9.56215 11.9979C9.56215 13.3264 10.6548 14.4124 12.0012 14.4124Z" fill="currentColor" />
            </g>
        </g>
    </svg>
    <svg width="16" height="16" viewBox="0 0 16 16" fill="none" xmlns="http://www.w3.org/2000/svg" id="ic-twitter">
        <path d="M5.21251 14.007C10.8732 14.007 13.9688 9.31731 13.9688 5.25075C13.9688 5.11756 13.966 4.98491 13.96 4.853C14.5609 4.41856 15.0831 3.87643 15.4952 3.25935C14.9438 3.50454 14.3503 3.66939 13.7279 3.74396C14.3632 3.36282 14.851 2.76014 15.0811 2.0417C14.4865 2.39422 13.828 2.65034 13.1269 2.78867C12.5654 2.19049 11.7657 1.81641 10.8804 1.81641C9.18101 1.81641 7.80274 3.19458 7.80274 4.89346C7.80274 5.13508 7.8298 5.36991 7.88255 5.5952C5.32479 5.4665 3.05663 4.24198 1.53893 2.37982C1.27475 2.83454 1.12229 3.36291 1.12229 3.92669C1.12229 4.99427 1.66561 5.937 2.49175 6.4883C1.98686 6.4728 1.51261 6.33419 1.09798 6.10349C1.09752 6.11642 1.09752 6.12899 1.09752 6.14275C1.09752 7.63321 2.15831 8.87764 3.56666 9.15962C3.30798 9.22998 3.03581 9.26787 2.75511 9.26787C2.55715 9.26787 2.36415 9.24842 2.17665 9.21237C2.56844 10.4352 3.70463 11.3249 5.05162 11.3499C3.99826 12.1755 2.67136 12.6673 1.22925 12.6673C0.981204 12.6673 0.736005 12.653 0.495117 12.6246C1.85715 13.4976 3.47447 14.0071 5.2126 14.0071" fill="currentColor" />
    </svg>
    <svg width="14" height="14" viewBox="0 0 14 14" fill="none" xmlns="http://www.w3.org/2000/svg" id="ic-linkedin">
        <g>
            <path d="M2.02234 0.710938C1.05992 0.710938 0.430664 1.34291 0.430664 2.17356C0.430664 2.98586 1.04117 3.63586 1.98541 3.63586H2.00368C2.98493 3.63586 3.5956 2.98586 3.5956 2.17356C3.57725 1.34291 2.98493 0.710938 2.02234 0.710938Z" fill="currentColor" />
            <path d="M0.597656 4.79102H3.41123V13.2558H0.597656V4.79102Z" fill="currentColor" />
            <path d="M10.3161 4.59277C8.79823 4.59277 7.78045 6.01903 7.78045 6.01903V4.79144H4.9668V13.2562H7.78029V8.52916C7.78029 8.2761 7.79864 8.02343 7.87298 7.84247C8.07637 7.33714 8.53924 6.81363 9.31654 6.81363C10.3346 6.81363 10.7418 7.58988 10.7418 8.72783V13.2562H13.5552V8.40267C13.5552 5.80266 12.167 4.59277 10.3161 4.59277Z" fill="currentColor" />
        </g>
    </svg>
    <svg width="14" height="14" viewBox="0 0 14 14" fill="none" xmlns="http://www.w3.org/2000/svg" id="ic-facebook">
        <g>
            <path fill-rule="evenodd" clip-rule="evenodd" d="M5.18113 13.8236C5.18113 13.921 5.26016 14 5.3575 14H7.87121C7.96855 14 8.0473 13.921 8.0473 13.8236V6.94477H9.86977C9.96109 6.94477 10.0374 6.87449 10.0453 6.78344L10.2206 4.71078C10.2291 4.60797 10.1481 4.51965 10.0448 4.51965H8.0473V3.04937C8.0473 2.70457 8.32676 2.42512 8.67129 2.42512H10.0757C10.1733 2.42512 10.252 2.34609 10.252 2.24875V0.176367C10.252 0.0790234 10.1733 0 10.0757 0H7.70277C6.31016 0 5.18113 1.12875 5.18113 2.52137V4.51965H3.92441C3.82707 4.51965 3.74805 4.59867 3.74805 4.69602V6.7684C3.74805 6.86602 3.82707 6.94477 3.92441 6.94477H5.18113V13.8236Z" fill="currentColor" />
        </g>
    </svg>
    <svg width="14" height="14" viewBox="0 0 14 14" fill="none" xmlns="http://www.w3.org/2000/svg" id="ic-instagram">
        <g>
            <path d="M1.7976 0.000976562H12.2032C13.1918 0.000976562 14 0.80943 14 1.79802V12.2037C14 13.192 13.1918 13.9999 12.2032 13.9999H1.7976C0.809013 13.9999 0 13.1919 0 12.2037V1.79802C0 0.80943 0.809013 0.000976562 1.7976 0.000976562ZM10.1988 1.55577C9.85171 1.55577 9.56858 1.84002 9.56858 2.18694V3.69492C9.56858 4.04198 9.85171 4.32558 10.1988 4.32558H11.781C12.1275 4.32558 12.4112 4.04198 12.4112 3.69492V2.18694C12.4112 1.84002 12.1275 1.55577 11.781 1.55577H10.1988ZM12.4173 5.92093H11.1854C11.3022 6.30243 11.3656 6.70474 11.3656 7.12301C11.3656 9.45084 9.41649 11.3389 7.01316 11.3389C4.61043 11.3389 2.66131 9.45084 2.66131 7.12301C2.66131 6.70474 2.72524 6.30243 2.84149 5.92093H1.55633V11.8351C1.55633 12.1414 1.80642 12.3905 2.11241 12.3905H11.8614C12.1677 12.3905 12.4173 12.1414 12.4173 11.8351V5.92093ZM7.01321 4.24606C5.46107 4.24606 4.20201 5.46537 4.20201 6.97083C4.20201 8.47476 5.46107 9.695 7.01321 9.695C8.56618 9.695 9.82529 8.47476 9.82529 6.97083C9.82529 5.46532 8.56618 4.24606 7.01321 4.24606Z" fill="currentColor" />
        </g>
    </svg>
    <svg width="20" height="20" viewBox="0 0 20 20" fill="none" xmlns="http://www.w3.org/2000/svg" id="ic-plus">
        <rect opacity="0.01" width="20" height="20" fill="currentColor" />
        <path fill-rule="evenodd" clip-rule="evenodd" d="M10 2.5C10.6904 2.5 11.25 3.05964 11.25 3.75V8.75H16.25C16.9404 8.75 17.5 9.30964 17.5 10C17.5 10.6904 16.9404 11.25 16.25 11.25H11.25V16.25C11.25 16.9404 10.6904 17.5 10 17.5C9.30964 17.5 8.75 16.9404 8.75 16.25V11.25H3.75C3.05964 11.25 2.5 10.6904 2.5 10C2.5 9.30964 3.05964 8.75 3.75 8.75H8.75V3.75C8.75 3.05964 9.30964 2.5 10 2.5Z" fill="currentColor" />
    </svg>

</svg>