<svg xmlns="http://www.w3.org/2000/svg">
    <svg id="ic-search" viewBox="0 0 24 24" fill="none" xmlns="http://www.w3.org/2000/svg">
        <path d="M11.5 2C6.26 2 2 6.26 2 11.5C2 16.74 6.26 21 11.5 21C16.74 21 21 16.74 21 11.5C21 6.26 16.74 2 11.5 2ZM11.5 13.75H8.5C8.09 13.75 7.75 13.41 7.75 13C7.75 12.59 8.09 12.25 8.5 12.25H11.5C11.91 12.25 12.25 12.59 12.25 13C12.25 13.41 11.91 13.75 11.5 13.75ZM14.5 10.75H8.5C8.09 10.75 7.75 10.41 7.75 10C7.75 9.59 8.09 9.25 8.5 9.25H14.5C14.91 9.25 15.25 9.59 15.25 10C15.25 10.41 14.91 10.75 14.5 10.75Z" fill="currentColor"/>
        <path d="M21.3005 21.9986C21.1205 21.9986 20.9405 21.9286 20.8105 21.7986L18.9505 19.9386C18.6805 19.6686 18.6805 19.2286 18.9505 18.9486C19.2205 18.6786 19.6605 18.6786 19.9405 18.9486L21.8005 20.8086C22.0705 21.0786 22.0705 21.5186 21.8005 21.7986C21.6605 21.9286 21.4805 21.9986 21.3005 21.9986Z" fill="currentColor"/>
    </svg>    
    <svg id="ic-profile" viewBox="0 0 24 24" fill="none" xmlns="http://www.w3.org/2000/svg">
        <path d="M12 12C14.7614 12 17 9.76142 17 7C17 4.23858 14.7614 2 12 2C9.23858 2 7 4.23858 7 7C7 9.76142 9.23858 12 12 12Z" fill="currentColor"/>
        <path d="M12.0002 14.5C6.99016 14.5 2.91016 17.86 2.91016 22C2.91016 22.28 3.13016 22.5 3.41016 22.5H20.5902C20.8702 22.5 21.0902 22.28 21.0902 22C21.0902 17.86 17.0102 14.5 12.0002 14.5Z" fill="currentColor"/>
    </svg>
    <svg id="ic-external" viewBox="0 0 24 24" fill="none" xmlns="http://www.w3.org/2000/svg">
        <path d="M20.5 21.25H3.5C3.09 21.25 2.75 21.59 2.75 22C2.75 22.41 3.09 22.75 3.5 22.75H20.5C20.91 22.75 21.25 22.41 21.25 22C21.25 21.59 20.91 21.25 20.5 21.25Z" fill="#292D32"/>
        <path d="M7.98 3.5C7.98 3.91 8.32 4.25 8.73 4.25L17.19 4.25L4.47 16.97C4.32 17.12 4.25 17.31 4.25 17.5C4.25 17.69 4.32 17.88 4.47 18.03C4.76 18.32 5.24 18.32 5.53 18.03L18.25 5.31L18.25 13.77C18.25 14.18 18.59 14.52 19 14.52C19.41 14.52 19.75 14.18 19.75 13.77L19.75 3.5C19.75 3.4 19.73 3.31 19.69 3.21C19.62 3.03 19.47 2.88 19.29 2.81C19.19 2.77 19.1 2.75 19 2.75L8.73 2.75C8.32 2.75 7.98 3.09 7.98 3.5Z" fill="#292D32"/>
    </svg>        
    <svg id="ic-calander" viewBox="0 0 24 24" fill="none" xmlns="http://www.w3.org/2000/svg">
        <path d="M16.7502 3.56V2C16.7502 1.59 16.4102 1.25 16.0002 1.25C15.5902 1.25 15.2502 1.59 15.2502 2V3.5H8.75023V2C8.75023 1.59 8.41023 1.25 8.00023 1.25C7.59023 1.25 7.25023 1.59 7.25023 2V3.56C4.55023 3.81 3.24023 5.42 3.04023 7.81C3.02023 8.1 3.26023 8.34 3.54023 8.34H20.4602C20.7502 8.34 20.9902 8.09 20.9602 7.81C20.7602 5.42 19.4502 3.81 16.7502 3.56Z" fill="currentColor"/>
        <path d="M20 9.83984H4C3.45 9.83984 3 10.2898 3 10.8398V16.9998C3 19.9998 4.5 21.9998 8 21.9998H16C19.5 21.9998 21 19.9998 21 16.9998V10.8398C21 10.2898 20.55 9.83984 20 9.83984ZM9.21 18.2098C9.16 18.2498 9.11 18.2998 9.06 18.3298C9 18.3698 8.94 18.3998 8.88 18.4198C8.82 18.4498 8.76 18.4698 8.7 18.4798C8.63 18.4898 8.57 18.4998 8.5 18.4998C8.37 18.4998 8.24 18.4698 8.12 18.4198C7.99 18.3698 7.89 18.2998 7.79 18.2098C7.61 18.0198 7.5 17.7598 7.5 17.4998C7.5 17.2398 7.61 16.9798 7.79 16.7898C7.89 16.6998 7.99 16.6298 8.12 16.5798C8.3 16.4998 8.5 16.4798 8.7 16.5198C8.76 16.5298 8.82 16.5498 8.88 16.5798C8.94 16.5998 9 16.6298 9.06 16.6698C9.11 16.7098 9.16 16.7498 9.21 16.7898C9.39 16.9798 9.5 17.2398 9.5 17.4998C9.5 17.7598 9.39 18.0198 9.21 18.2098ZM9.21 14.7098C9.02 14.8898 8.76 14.9998 8.5 14.9998C8.24 14.9998 7.98 14.8898 7.79 14.7098C7.61 14.5198 7.5 14.2598 7.5 13.9998C7.5 13.7398 7.61 13.4798 7.79 13.2898C8.07 13.0098 8.51 12.9198 8.88 13.0798C9.01 13.1298 9.12 13.1998 9.21 13.2898C9.39 13.4798 9.5 13.7398 9.5 13.9998C9.5 14.2598 9.39 14.5198 9.21 14.7098ZM12.71 18.2098C12.52 18.3898 12.26 18.4998 12 18.4998C11.74 18.4998 11.48 18.3898 11.29 18.2098C11.11 18.0198 11 17.7598 11 17.4998C11 17.2398 11.11 16.9798 11.29 16.7898C11.66 16.4198 12.34 16.4198 12.71 16.7898C12.89 16.9798 13 17.2398 13 17.4998C13 17.7598 12.89 18.0198 12.71 18.2098ZM12.71 14.7098C12.66 14.7498 12.61 14.7898 12.56 14.8298C12.5 14.8698 12.44 14.8998 12.38 14.9198C12.32 14.9498 12.26 14.9698 12.2 14.9798C12.13 14.9898 12.07 14.9998 12 14.9998C11.74 14.9998 11.48 14.8898 11.29 14.7098C11.11 14.5198 11 14.2598 11 13.9998C11 13.7398 11.11 13.4798 11.29 13.2898C11.38 13.1998 11.49 13.1298 11.62 13.0798C11.99 12.9198 12.43 13.0098 12.71 13.2898C12.89 13.4798 13 13.7398 13 13.9998C13 14.2598 12.89 14.5198 12.71 14.7098ZM16.21 18.2098C16.02 18.3898 15.76 18.4998 15.5 18.4998C15.24 18.4998 14.98 18.3898 14.79 18.2098C14.61 18.0198 14.5 17.7598 14.5 17.4998C14.5 17.2398 14.61 16.9798 14.79 16.7898C15.16 16.4198 15.84 16.4198 16.21 16.7898C16.39 16.9798 16.5 17.2398 16.5 17.4998C16.5 17.7598 16.39 18.0198 16.21 18.2098ZM16.21 14.7098C16.16 14.7498 16.11 14.7898 16.06 14.8298C16 14.8698 15.94 14.8998 15.88 14.9198C15.82 14.9498 15.76 14.9698 15.7 14.9798C15.63 14.9898 15.56 14.9998 15.5 14.9998C15.24 14.9998 14.98 14.8898 14.79 14.7098C14.61 14.5198 14.5 14.2598 14.5 13.9998C14.5 13.7398 14.61 13.4798 14.79 13.2898C14.89 13.1998 14.99 13.1298 15.12 13.0798C15.3 12.9998 15.5 12.9798 15.7 13.0198C15.76 13.0298 15.82 13.0498 15.88 13.0798C15.94 13.0998 16 13.1298 16.06 13.1698C16.11 13.2098 16.16 13.2498 16.21 13.2898C16.39 13.4798 16.5 13.7398 16.5 13.9998C16.5 14.2598 16.39 14.5198 16.21 14.7098Z" fill="currentColor"/>
    </svg>
    <svg id="ic-clock" viewBox="0 0 24 24" fill="none" xmlns="http://www.w3.org/2000/svg">
        <path d="M12 2C6.49 2 2 6.49 2 12C2 17.51 6.49 22 12 22C17.51 22 22 17.51 22 12C22 6.49 17.51 2 12 2ZM16.35 15.57C16.21 15.81 15.96 15.94 15.7 15.94C15.57 15.94 15.44 15.91 15.32 15.83L12.22 13.98C11.45 13.52 10.88 12.51 10.88 11.62V7.52C10.88 7.11 11.22 6.77 11.63 6.77C12.04 6.77 12.38 7.11 12.38 7.52V11.62C12.38 11.98 12.68 12.51 12.99 12.69L16.09 14.54C16.45 14.75 16.57 15.21 16.35 15.57Z" fill="#292D32"/>
    </svg>
    <svg id="ic-folder" viewBox="0 0 24 24" fill="none" xmlns="http://www.w3.org/2000/svg">
        <path d="M21.0169 7.99175C21.4148 8.55833 20.9405 9.25 20.2482 9.25H3C2.44772 9.25 2 8.80228 2 8.25V6.42C2 3.98 3.98 2 6.42 2H8.74C10.37 2 10.88 2.53 11.53 3.4L12.93 5.26C13.24 5.67 13.28 5.72 13.86 5.72H16.65C18.4546 5.72 20.0516 6.61709 21.0169 7.99175Z" fill="#292D32"/>
        <path d="M20.9834 10.75C21.5343 10.75 21.9815 11.1957 21.9834 11.7466L22 16.6503C22 19.6003 19.6 22.0003 16.65 22.0003H7.35C4.4 22.0003 2 19.6003 2 16.6503V11.7503C2 11.198 2.44771 10.7503 2.99999 10.7503L20.9834 10.75Z" fill="#292D32"/>
    </svg>








    <svg viewBox="0 0 20 20" fill="none" id="ic-chat">
        <path fill-rule="evenodd" clip-rule="evenodd" d="M6.41277 11.159C5.87547 11.159 5.43896 10.7225 5.43896 10.1851C5.43896 9.64939 5.87547 9.21289 6.41277 9.21289C6.95008 9.21289 7.38659 9.64939 7.38659 10.1851C7.38659 10.7225 6.95008 11.159 6.41277 11.159ZM10.1985 11.159C9.66116 11.159 9.22466 10.7225 9.22466 10.1851C9.22466 9.64939 9.66116 9.21289 10.1985 9.21289C10.7358 9.21289 11.1723 9.64939 11.1723 10.1851C11.1723 10.7225 10.7358 11.159 10.1985 11.159ZM13.0105 10.1851C13.0105 10.7225 13.447 11.159 13.9843 11.159C14.5216 11.159 14.9581 10.7225 14.9581 10.1851C14.9581 9.64939 14.5216 9.21289 13.9843 9.21289C13.447 9.21289 13.0105 9.64939 13.0105 10.1851Z" fill="currentColor" />
        <path fill-rule="evenodd" clip-rule="evenodd" d="M10.0165 1.66675C5.17484 1.66675 1.6665 5.62185 1.6665 10.0126C1.6665 11.4147 2.07484 12.8577 2.7915 14.1763C2.92484 14.3942 2.9415 14.6687 2.84984 14.9283L2.2915 16.7977C2.1665 17.2484 2.54984 17.5814 2.97484 17.4479L4.65817 16.948C5.1165 16.7977 5.47484 16.9889 5.89984 17.2484C7.1165 17.9653 8.63317 18.3334 9.99984 18.3334C14.1332 18.3334 18.3332 15.1369 18.3332 9.98758C18.3332 5.54673 14.7498 1.66675 10.0165 1.66675Z" stroke="currentColor" stroke-width="1.5" stroke-linecap="round" stroke-linejoin="round" />
    </svg>
    <svg viewBox="0 0 20 20" fill="none" id="ic-tag">
        <path fill-rule="evenodd" clip-rule="evenodd" d="M9.72046 15.5262L4.77764 18.2341C4.38299 18.4392 3.8968 18.294 3.67924 17.9061C3.61629 17.7859 3.58234 17.6527 3.58008 17.5171V5.5186C3.58008 3.23027 5.14377 2.31494 7.39396 2.31494H12.68C14.8615 2.31494 16.4939 3.16925 16.4939 5.36604V17.5171C16.4939 17.7336 16.4079 17.9411 16.2548 18.0942C16.1018 18.2472 15.8942 18.3332 15.6777 18.3332C15.5396 18.3311 15.404 18.2972 15.281 18.2341L10.3078 15.5262C10.1245 15.4272 9.90371 15.4272 9.72046 15.5262Z" stroke="currentColor" stroke-width="1.5" stroke-linecap="round" stroke-linejoin="round" />
        <path d="M6.97461 7.7688H13.054" stroke="currentColor" stroke-width="1.5" stroke-linecap="round" stroke-linejoin="round" />
    </svg>
    <svg viewBox="0 0 20 20" fill="none" id="ic-pen">
        <path d="M11.4165 16.5818H16.7307" stroke="currentColor" stroke-width="1.5" stroke-linecap="round" stroke-linejoin="round" />
        <path fill-rule="evenodd" clip-rule="evenodd" d="M10.7126 4.12975C11.3268 3.34725 12.3193 3.38809 13.1026 4.00225L14.2609 4.91059C15.0443 5.52475 15.3218 6.47725 14.7076 7.26142L7.80009 16.0739C7.56926 16.3689 7.21676 16.5431 6.84176 16.5473L4.17759 16.5814L3.57426 13.9856C3.48926 13.6214 3.57426 13.2381 3.80509 12.9423L10.7126 4.12975Z" stroke="currentColor" stroke-width="1.5" stroke-linecap="round" stroke-linejoin="round" />
        <path d="M9.41895 5.78003L13.4139 8.9117" stroke="currentColor" stroke-width="1.5" stroke-linecap="round" stroke-linejoin="round" />
    </svg>
    <svg viewBox="0 0 20 20" fill="none" id="ic-eye">
        <path d="M12.9832 10C12.9832 11.65 11.6499 12.9834 9.9999 12.9834C8.3499 12.9834 7.0166 11.65 7.0166 10C7.0166 8.35002 8.3499 7.01672 9.9999 7.01672C11.6499 7.01672 12.9832 8.35002 12.9832 10Z" stroke="currentColor" stroke-width="1.5" stroke-linecap="round" stroke-linejoin="round" />
        <path d="M9.9999 16.8917C12.9416 16.8917 15.6832 15.1583 17.5916 12.1583C18.3416 10.9833 18.3416 9.00833 17.5916 7.83331C15.6832 4.83331 12.9416 3.09998 9.9999 3.09998C7.0582 3.09998 4.31654 4.83331 2.4082 7.83331C1.6582 9.00833 1.6582 10.9833 2.4082 12.1583C4.31654 15.1583 7.0582 16.8917 9.9999 16.8917Z" stroke="currentColor" stroke-width="1.5" stroke-linecap="round" stroke-linejoin="round" />
    </svg>

    <svg id="ic-buy" viewBox="0 0 24 24" fill="none">
        <g id="Iconly/Bold/Buy">
            <g id="Buy">
                <path id="Buy_2" fill-rule="evenodd" clip-rule="evenodd" d="M14.1213 11.2331H16.8891C17.3088 11.2331 17.6386 10.8861 17.6386 10.4677C17.6386 10.0391 17.3088 9.70236 16.8891 9.70236H14.1213C13.7016 9.70236 13.3719 10.0391 13.3719 10.4677C13.3719 10.8861 13.7016 11.2331 14.1213 11.2331ZM20.1766 5.92749C20.7861 5.92749 21.1858 6.1418 21.5855 6.61123C21.9852 7.08067 22.0551 7.7542 21.9652 8.36549L21.0159 15.06C20.8361 16.3469 19.7569 17.2949 18.4879 17.2949H7.58639C6.25742 17.2949 5.15828 16.255 5.04837 14.908L4.12908 3.7834L2.62026 3.51807C2.22057 3.44664 1.94079 3.04864 2.01073 2.64043C2.08068 2.22305 2.47038 1.94649 2.88006 2.00874L5.2632 2.3751C5.60293 2.43735 5.85274 2.72207 5.88272 3.06905L6.07257 5.35499C6.10254 5.68257 6.36234 5.92749 6.68209 5.92749H20.1766ZM7.42631 18.9079C6.58697 18.9079 5.9075 19.6018 5.9075 20.459C5.9075 21.3061 6.58697 22 7.42631 22C8.25567 22 8.93514 21.3061 8.93514 20.459C8.93514 19.6018 8.25567 18.9079 7.42631 18.9079ZM18.6676 18.9079C17.8282 18.9079 17.1487 19.6018 17.1487 20.459C17.1487 21.3061 17.8282 22 18.6676 22C19.4969 22 20.1764 21.3061 20.1764 20.459C20.1764 19.6018 19.4969 18.9079 18.6676 18.9079Z" fill="currentColor" />
            </g>
        </g>
    </svg>

    <svg viewBox="0 0 24 24" fill="none" id="ic-eye">
        <g id="Iconly/Bold/Show">
            <g id="Show">
                <path id="Show_2" fill-rule="evenodd" clip-rule="evenodd" d="M8.09756 12C8.09756 14.1333 9.8439 15.8691 12 15.8691C14.1463 15.8691 15.8927 14.1333 15.8927 12C15.8927 9.85697 14.1463 8.12121 12 8.12121C9.8439 8.12121 8.09756 9.85697 8.09756 12ZM17.7366 6.04606C19.4439 7.36485 20.8976 9.29455 21.9415 11.7091C22.0195 11.8933 22.0195 12.1067 21.9415 12.2812C19.8537 17.1103 16.1366 20 12 20H11.9902C7.86341 20 4.14634 17.1103 2.05854 12.2812C1.98049 12.1067 1.98049 11.8933 2.05854 11.7091C4.14634 6.88 7.86341 4 11.9902 4H12C14.0683 4 16.0293 4.71758 17.7366 6.04606ZM12.0012 14.4124C13.3378 14.4124 14.4304 13.3264 14.4304 11.9979C14.4304 10.6597 13.3378 9.57362 12.0012 9.57362C11.8841 9.57362 11.767 9.58332 11.6597 9.60272C11.6207 10.6694 10.7426 11.5227 9.65971 11.5227H9.61093C9.58166 11.6779 9.56215 11.833 9.56215 11.9979C9.56215 13.3264 10.6548 14.4124 12.0012 14.4124Z" fill="currentColor" />
            </g>
        </g>
    </svg>
    <svg width="16" height="16" viewBox="0 0 16 16" fill="none" xmlns="http://www.w3.org/2000/svg" id="ic-twitter">
        <path d="M5.21251 14.007C10.8732 14.007 13.9688 9.31731 13.9688 5.25075C13.9688 5.11756 13.966 4.98491 13.96 4.853C14.5609 4.41856 15.0831 3.87643 15.4952 3.25935C14.9438 3.50454 14.3503 3.66939 13.7279 3.74396C14.3632 3.36282 14.851 2.76014 15.0811 2.0417C14.4865 2.39422 13.828 2.65034 13.1269 2.78867C12.5654 2.19049 11.7657 1.81641 10.8804 1.81641C9.18101 1.81641 7.80274 3.19458 7.80274 4.89346C7.80274 5.13508 7.8298 5.36991 7.88255 5.5952C5.32479 5.4665 3.05663 4.24198 1.53893 2.37982C1.27475 2.83454 1.12229 3.36291 1.12229 3.92669C1.12229 4.99427 1.66561 5.937 2.49175 6.4883C1.98686 6.4728 1.51261 6.33419 1.09798 6.10349C1.09752 6.11642 1.09752 6.12899 1.09752 6.14275C1.09752 7.63321 2.15831 8.87764 3.56666 9.15962C3.30798 9.22998 3.03581 9.26787 2.75511 9.26787C2.55715 9.26787 2.36415 9.24842 2.17665 9.21237C2.56844 10.4352 3.70463 11.3249 5.05162 11.3499C3.99826 12.1755 2.67136 12.6673 1.22925 12.6673C0.981204 12.6673 0.736005 12.653 0.495117 12.6246C1.85715 13.4976 3.47447 14.0071 5.2126 14.0071" fill="currentColor" />
    </svg>
    <svg width="14" height="14" viewBox="0 0 14 14" fill="none" xmlns="http://www.w3.org/2000/svg" id="ic-linkedin">
        <g>
            <path d="M2.02234 0.710938C1.05992 0.710938 0.430664 1.34291 0.430664 2.17356C0.430664 2.98586 1.04117 3.63586 1.98541 3.63586H2.00368C2.98493 3.63586 3.5956 2.98586 3.5956 2.17356C3.57725 1.34291 2.98493 0.710938 2.02234 0.710938Z" fill="currentColor" />
            <path d="M0.597656 4.79102H3.41123V13.2558H0.597656V4.79102Z" fill="currentColor" />
            <path d="M10.3161 4.59277C8.79823 4.59277 7.78045 6.01903 7.78045 6.01903V4.79144H4.9668V13.2562H7.78029V8.52916C7.78029 8.2761 7.79864 8.02343 7.87298 7.84247C8.07637 7.33714 8.53924 6.81363 9.31654 6.81363C10.3346 6.81363 10.7418 7.58988 10.7418 8.72783V13.2562H13.5552V8.40267C13.5552 5.80266 12.167 4.59277 10.3161 4.59277Z" fill="currentColor" />
        </g>
    </svg>
    <svg width="14" height="14" viewBox="0 0 14 14" fill="none" xmlns="http://www.w3.org/2000/svg" id="ic-facebook">
        <g>
            <path fill-rule="evenodd" clip-rule="evenodd" d="M5.18113 13.8236C5.18113 13.921 5.26016 14 5.3575 14H7.87121C7.96855 14 8.0473 13.921 8.0473 13.8236V6.94477H9.86977C9.96109 6.94477 10.0374 6.87449 10.0453 6.78344L10.2206 4.71078C10.2291 4.60797 10.1481 4.51965 10.0448 4.51965H8.0473V3.04937C8.0473 2.70457 8.32676 2.42512 8.67129 2.42512H10.0757C10.1733 2.42512 10.252 2.34609 10.252 2.24875V0.176367C10.252 0.0790234 10.1733 0 10.0757 0H7.70277C6.31016 0 5.18113 1.12875 5.18113 2.52137V4.51965H3.92441C3.82707 4.51965 3.74805 4.59867 3.74805 4.69602V6.7684C3.74805 6.86602 3.82707 6.94477 3.92441 6.94477H5.18113V13.8236Z" fill="currentColor" />
        </g>
    </svg>
    <svg width="14" height="14" viewBox="0 0 14 14" fill="none" xmlns="http://www.w3.org/2000/svg" id="ic-instagram">
        <g>
            <path d="M1.7976 0.000976562H12.2032C13.1918 0.000976562 14 0.80943 14 1.79802V12.2037C14 13.192 13.1918 13.9999 12.2032 13.9999H1.7976C0.809013 13.9999 0 13.1919 0 12.2037V1.79802C0 0.80943 0.809013 0.000976562 1.7976 0.000976562ZM10.1988 1.55577C9.85171 1.55577 9.56858 1.84002 9.56858 2.18694V3.69492C9.56858 4.04198 9.85171 4.32558 10.1988 4.32558H11.781C12.1275 4.32558 12.4112 4.04198 12.4112 3.69492V2.18694C12.4112 1.84002 12.1275 1.55577 11.781 1.55577H10.1988ZM12.4173 5.92093H11.1854C11.3022 6.30243 11.3656 6.70474 11.3656 7.12301C11.3656 9.45084 9.41649 11.3389 7.01316 11.3389C4.61043 11.3389 2.66131 9.45084 2.66131 7.12301C2.66131 6.70474 2.72524 6.30243 2.84149 5.92093H1.55633V11.8351C1.55633 12.1414 1.80642 12.3905 2.11241 12.3905H11.8614C12.1677 12.3905 12.4173 12.1414 12.4173 11.8351V5.92093ZM7.01321 4.24606C5.46107 4.24606 4.20201 5.46537 4.20201 6.97083C4.20201 8.47476 5.46107 9.695 7.01321 9.695C8.56618 9.695 9.82529 8.47476 9.82529 6.97083C9.82529 5.46532 8.56618 4.24606 7.01321 4.24606Z" fill="currentColor" />
        </g>
    </svg>
    <svg width="20" height="20" viewBox="0 0 20 20" fill="none" xmlns="http://www.w3.org/2000/svg" id="ic-plus">
        <rect opacity="0.01" width="20" height="20" fill="currentColor" />
        <path fill-rule="evenodd" clip-rule="evenodd" d="M10 2.5C10.6904 2.5 11.25 3.05964 11.25 3.75V8.75H16.25C16.9404 8.75 17.5 9.30964 17.5 10C17.5 10.6904 16.9404 11.25 16.25 11.25H11.25V16.25C11.25 16.9404 10.6904 17.5 10 17.5C9.30964 17.5 8.75 16.9404 8.75 16.25V11.25H3.75C3.05964 11.25 2.5 10.6904 2.5 10C2.5 9.30964 3.05964 8.75 3.75 8.75H8.75V3.75C8.75 3.05964 9.30964 2.5 10 2.5Z" fill="currentColor" />
    </svg>

</svg>